<?xml version="1.0" encoding="utf-8"?>
<!-- Generator: Adobe Illustrator 25.0.0, SVG Export Plug-In . SVG Version: 6.00 Build 0)  -->
<svg version="1.1" id="图层_1" xmlns="http://www.w3.org/2000/svg" xmlns:xlink="http://www.w3.org/1999/xlink" x="0px" y="0px"
	 viewBox="0 0 180 180" style="enable-background:new 0 0 180 180;" xml:space="preserve">
<style type="text/css">
	.st0{fill:#2563EB;}
	.st1{fill:#F9F9F9;}
</style>
<path class="st0" d="M9,27c0-9.9,8.1-18,18-18h126c9.9,0,18,8.1,18,18v126c0,9.9-8.1,18-18,18H27c-9.9,0-18-8.1-18-18V27z"/>
<path class="st1" d="M151.5,141.5l-14.4-14.4c20.4-26,15.9-63.7-10.1-84.2S63.2,27,42.8,53s-15.9,63.7,10.1,84.2
	C63.5,145.5,76.6,150,90,150h57.9c2.8,0,5-2.2,5-5C152.9,143.7,152.4,142.4,151.5,141.5z M55,90c0-19.3,15.7-35,35-35s35,15.7,35,35
	s-15.7,35-35,35S55,109.3,55,90z"/>
</svg>
