<?xml version="1.0" encoding="utf-8"?>
<!-- Generator: Adobe Illustrator 25.0.0, SVG Export Plug-In . SVG Version: 6.00 Build 0)  -->
<svg version="1.1" id="图层_1" xmlns="http://www.w3.org/2000/svg" xmlns:xlink="http://www.w3.org/1999/xlink" x="0px" y="0px"
	 viewBox="0 0 124.7 124.7" style="enable-background:new 0 0 124.7 124.7;" xml:space="preserve">
<style type="text/css">
	.st0{fill:#2563EB;}
</style>
<path class="st0" d="M69.7,22.6v80.9h8.5l3.6,10.1l15-10.1h18.6V22.6H69.7z M104.6,92.7h-8.4l-10.6,7.1L83,92.7h-2.5V33.6h24.1
	L104.6,92.7L104.6,92.7z M64.3,58.8H45.6c0.3-6.3,0.6-14.7,0.9-24.4h18.4v-1.1c0-1.4-0.2-2.7-0.3-4.1c-0.3-2.1-0.9-4.9-3-4.9h-31
	c0.6-2.9,2.2-9.8,4.2-13.2l0.8-1.6l-1.8-0.1c-2,0-4,0.5-5.8,1.5c-5.1,2.7-7.3,7.9-8.3,11.9c-1.8,7.2-4.4,14.1-7.9,20.6
	c-0.5,0.9-0.7,1.4-0.9,1.8c-0.3,0.6-0.1,1.4,0.4,1.8c1.5,1.3,5.4-0.4,5.4-0.4l0.3-0.1c2-0.9,7.8-3.5,9.9-11.9h8
	c0.1,4.5,0.4,19.5,0.4,24.4H15.5l-0.3,0.2c-3.3,2.3-4.3,8.9-4.3,9.1l-0.2,1.3h23.6c-1.7,11.1-3.7,16-4.8,18c-0.5,1-1,2-1.5,2.9
	c-3,5.9-6.1,12.1-17.9,21.7c-0.6,0.4-0.9,1.2-0.7,1.9c0.3,0.9,1.3,1.3,3.5,1.3c0.8,0,1.7,0,2.7-0.1c7-0.6,14.2-2.6,19.1-12.4
	c2.4-5,4.5-10.1,6.2-15.3l19.3,22.5l0.7-1.7c1.6-4.3,1.9-9.1,0.7-13.5l-0.1-0.3L46.2,77.2l-3.1,2.3c0.8-3.3,1.4-6.6,1.8-10h22.4
	v-1.1c0.1-3.3-0.9-6.5-2.7-9.2L64.3,58.8z"/>
</svg>
